<?xml version="1.0" encoding="UTF-8"?>
<svg version="1.1" xmlns="http://www.w3.org/2000/svg" width="100" height="100">
<path d="M0 0 C0.66 0.99 1.32 1.98 2 3 C4.21333894 3.83414783 4.21333894 3.83414783 6.75 4.375 C11.58037961 5.75311983 14.6087594 7.12429646 18 11 C23.66886802 21.95495074 23.14301242 33.98695652 23 46 C30.59 46 38.18 46 46 46 C46 61.18 46 76.36 46 92 C32.14 92 18.28 92 4 92 C4 89.36 4 86.72 4 84 C-11.84 84 -27.68 84 -44 84 C-44 74.75675676 -44 74.75675676 -40 70 C-35.83134006 66.20465289 -31.2667026 64.04905231 -26.1875 61.75 C-25.39923828 61.38648438 -24.61097656 61.02296875 -23.79882812 60.6484375 C-21.86873018 59.75942269 -19.93474795 58.87884913 -18 58 C-18 57.67 -18 57.34 -18 57 C-18.84304687 56.80664062 -19.68609375 56.61328125 -20.5546875 56.4140625 C-21.65039062 56.15367188 -22.74609375 55.89328125 -23.875 55.625 C-24.96554688 55.36976562 -26.05609375 55.11453125 -27.1796875 54.8515625 C-30 54 -30 54 -32 52 C-31.78252998 49.28162474 -31.42803987 46.68829917 -31 44 C-30.73215204 41.96122831 -30.46670731 39.92214006 -30.203125 37.8828125 C-29.88693995 35.62999401 -29.56919638 33.37739379 -29.25 31.125 C-29.105625 30.00480469 -28.96125 28.88460937 -28.8125 27.73046875 C-27.39966348 17.9659454 -24.8040456 9.27865555 -16.67578125 3.1171875 C-11.58531916 -0.27645389 -6.04479225 -0.9949835 0 0 Z M-17.51953125 10.58984375 C-23.54455622 19.19962264 -24.2338616 30.53167913 -25.35424805 40.70703125 C-25.67706241 43.63096334 -26.06569548 46.19708643 -27 49 C-22.02638346 50.75734451 -17.2584002 52.32584613 -12 53 C-11.87625 53.804375 -11.7525 54.60875 -11.625 55.4375 C-11.41875 56.283125 -11.2125 57.12875 -11 58 C-8.53630468 59.23184766 -6.8105499 59.16732342 -4.0625 59.1875 C-3.18722656 59.20167969 -2.31195313 59.21585938 -1.41015625 59.23046875 C1.26244335 59.16663349 1.26244335 59.16663349 4 57 C4.36460453 54.33346095 4.36460453 54.33346095 4.1875 51.375 C4.125625 49.60125 4.06375 47.8275 4 46 C8.62 46 13.24 46 18 46 C18.69506533 28.52440019 18.69506533 28.52440019 12 13 C8.30165456 9.19598755 4.96925127 8.31620302 -0.109375 7.4921875 C-0.73328125 7.32976563 -1.3571875 7.16734375 -2 7 C-2.33 6.34 -2.66 5.68 -3 5 C-8.62297114 4.29712861 -13.65286034 6.54425234 -17.51953125 10.58984375 Z M8 50 C8 62.54 8 75.08 8 88 C19.22 88 30.44 88 42 88 C42 75.46 42 62.92 42 50 C30.78 50 19.56 50 8 50 Z M-20.875 64.75 C-21.88304688 65.28109375 -22.89109375 65.8121875 -23.9296875 66.359375 C-24.94289063 66.90078125 -25.95609375 67.4421875 -27 68 C-28.05832031 68.51175781 -29.11664063 69.02351563 -30.20703125 69.55078125 C-33.50445047 71.26174982 -35.59326052 73.18067661 -38 76 C-38.33 77.32 -38.66 78.64 -39 80 C-24.81 80 -10.62 80 4 80 C4 74.39 4 68.78 4 63 C-0.75640658 63.03938171 -0.75640658 63.03938171 -5.51269531 63.09008789 C-10.65065261 63.11150756 -10.65065261 63.11150756 -13.1171875 62.32421875 C-16.19519338 61.79418869 -18.18392134 63.31201904 -20.875 64.75 Z " fill="#000000" transform="translate(54,8)"/>
<path d="M0 0 C7.26 0 14.52 0 22 0 C22 1.32 22 2.64 22 4 C14.74 4 7.48 4 0 4 C0 2.68 0 1.36 0 0 Z " fill="#000000" transform="translate(68,62)"/>
<path d="M0 0 C1.98 0 3.96 0 6 0 C6 1.32 6 2.64 6 4 C4.02 4 2.04 4 0 4 C0 2.68 0 1.36 0 0 Z " fill="#000000" transform="translate(86,88)"/>
<path d="M0 0 C1.98 0 3.96 0 6 0 C6 1.32 6 2.64 6 4 C4.02 4 2.04 4 0 4 C0 2.68 0 1.36 0 0 Z " fill="#000000" transform="translate(76,88)"/>
<path d="M0 0 C1.98 0 3.96 0 6 0 C6 1.32 6 2.64 6 4 C4.02 4 2.04 4 0 4 C0 2.68 0 1.36 0 0 Z " fill="#000000" transform="translate(66,88)"/>
<path d="M0 0 C1.98 0 3.96 0 6 0 C6 1.32 6 2.64 6 4 C4.02 4 2.04 4 0 4 C0 2.68 0 1.36 0 0 Z " fill="#000000" transform="translate(86,80)"/>
<path d="M0 0 C1.98 0 3.96 0 6 0 C6 1.32 6 2.64 6 4 C4.02 4 2.04 4 0 4 C0 2.68 0 1.36 0 0 Z " fill="#000000" transform="translate(76,80)"/>
<path d="M0 0 C1.98 0 3.96 0 6 0 C6 1.32 6 2.64 6 4 C4.02 4 2.04 4 0 4 C0 2.68 0 1.36 0 0 Z " fill="#000000" transform="translate(66,80)"/>
<path d="M0 0 C1.98 0 3.96 0 6 0 C6 1.32 6 2.64 6 4 C4.02 4 2.04 4 0 4 C0 2.68 0 1.36 0 0 Z " fill="#000000" transform="translate(86,72)"/>
<path d="M0 0 C1.98 0 3.96 0 6 0 C6 1.32 6 2.64 6 4 C4.02 4 2.04 4 0 4 C0 2.68 0 1.36 0 0 Z " fill="#000000" transform="translate(76,72)"/>
<path d="M0 0 C1.98 0 3.96 0 6 0 C6 1.32 6 2.64 6 4 C4.02 4 2.04 4 0 4 C0 2.68 0 1.36 0 0 Z " fill="#000000" transform="translate(66,72)"/>
</svg>
