<svg xmlns="http://www.w3.org/2000/svg"  viewBox="0 0 64 64" width="50px" height="50px"><path fill="#faefde" d="M40.61,4.94H11.85a3,3,0,0,0-3,3v48a3,3,0,0,0,3,3h38a3,3,0,0,0,3-3V17.18A3,3,0,0,0,52,15.06L42.73,5.82A3,3,0,0,0,40.61,4.94Z"/><path fill="#fff7f0" d="M52.85 29.15V23.92L52.62 16a3 3 0 0 0-.65-1l-4.32-4.32L8.85 49.54 9 56.7a3 3 0 0 0 2.89 2.23H23.06zM42.73 5.82a3 3 0 0 0-.3-.25L8.85 39.15 9 45 45.46 8.54zM8.85 33.15L37 5 40 5 8.85 36.15 8.85 33.15z"/><path fill="#fff" d="M14.35 16L13.11 18.26 10.85 19.5 13.11 20.74 14.35 23 15.59 20.74 17.85 19.5 15.59 18.26 14.35 16zM32.43 8L31.58 9.56 30.02 10.42 31.58 11.27 32.43 12.84 33.29 11.27 34.85 10.42 33.29 9.56 32.43 8zM47.2 42L46.62 43.06 45.56 43.65 46.62 44.23 47.2 45.3 47.79 44.23 48.85 43.65 47.79 43.06 47.2 42z"/><path fill="#bbdef9" d="M40.85 5L40.85 17 52.85 17 40.85 5z"/><path fill="#8d6c9f" d="M52.54,14.12,43.88,5.46A5,5,0,0,0,40.34,4H11A3,3,0,0,0,8,7V57a3,3,0,0,0,3,3H51a3,3,0,0,0,3-3V17.66A5,5,0,0,0,52.54,14.12Zm-1.41,1.41a3,3,0,0,1,.38.46H43a1,1,0,0,1-1-1V6.5a3,3,0,0,1,.46.38ZM51,58H11a1,1,0,0,1-1-1V7a1,1,0,0,1,1-1H40v9a3,3,0,0,0,3,3h9V57A1,1,0,0,1,51,58Z"/><path fill="#8d6c9f" d="M38 23a1 1 0 0 0 1 1h4a1 1 0 0 0 0-2H39A1 1 0 0 0 38 23zM19 24H35a1 1 0 0 0 0-2H19a1 1 0 0 0 0 2zM19 20H39a1 1 0 0 0 0-2H19a1 1 0 0 0 0 2zM19 16H37a1 1 0 0 0 0-2H19a1 1 0 0 0 0 2zM19 28H43a1 1 0 0 0 0-2H19a1 1 0 0 0 0 2zM34 35a1 1 0 0 0-1-1H19a1 1 0 0 0 0 2H33A1 1 0 0 0 34 35zM19 32H43a1 1 0 0 0 0-2H19a1 1 0 0 0 0 2zM13 50a1 1 0 0 0-1 1v2a1 1 0 0 0 2 0V51A1 1 0 0 0 13 50zM18 50a1 1 0 0 0-1 1v2a1 1 0 0 0 2 0V51A1 1 0 0 0 18 50zM34 50a1 1 0 0 0-1 1v2a1 1 0 0 0 2 0V51A1 1 0 0 0 34 50zM39 50a1 1 0 0 0-1 1v2a1 1 0 0 0 2 0V51A1 1 0 0 0 39 50zM44 50a1 1 0 0 0-1 1v2a1 1 0 0 0 2 0V51A1 1 0 0 0 44 50zM49 50a1 1 0 0 0-1 1v2a1 1 0 0 0 2 0V51A1 1 0 0 0 49 50z"/><path fill="#ed7899" d="M37,44.63c-1-.6-2.32-.13-3.27,1.2a4.39,4.39,0,0,1-.7.82,3.14,3.14,0,0,0-.12-1.27,1.41,1.41,0,0,0-.77-.86,1,1,0,0,0-.9.06,1.57,1.57,0,0,0-.63,1.79,3.53,3.53,0,0,0,.29.9,3.36,3.36,0,0,1-.24.66l-.11.21a2.75,2.75,0,0,1-.49.77,4.35,4.35,0,0,0,.11-1c0-2.2-.44-3.41-1.29-3.8a1.31,1.31,0,0,0-1.4.18c-.78.63-1.07,2.22-.69,3.86a5.09,5.09,0,0,0,.74,1.67A3.51,3.51,0,0,1,26.35,51a.78.78,0,0,1-.17.07A.66.66,0,0,1,26,51a3.1,3.1,0,0,1-.47-.38,14.3,14.3,0,0,0,.86-4.36,6,6,0,0,0-1.18-4.3C24,40.7,23,41,22.67,41.22c-1.56.82-1.57,3.71-1.06,6.15a10.27,10.27,0,0,0,1.63,3.56,7.28,7.28,0,0,1-1.53,2.16,1,1,0,1,0,1.37,1.46,8.74,8.74,0,0,0,1.6-2.08l.25.17a2.36,2.36,0,0,0,1.08.4,2.28,2.28,0,0,0,1.31-.31,5.38,5.38,0,0,0,1.76-1.66A1.92,1.92,0,0,0,30.42,51a3.77,3.77,0,0,0,1.92-2l.08-.16.08-.17h0c1.44.27,2.39-1,2.84-1.68a2.66,2.66,0,0,1,.64-.63,1,1,0,0,0,1-1.73ZM24.09,48.46a8.12,8.12,0,0,1-.55-5.36,1.88,1.88,0,0,1,.23.21,4.28,4.28,0,0,1,.63,2.86A11.77,11.77,0,0,1,24.09,48.46Z"/></svg>