<?xml version="1.0" encoding="UTF-8"?>
<svg version="1.1" xmlns="http://www.w3.org/2000/svg" width="100" height="100">
<path d="M0 0 C4.65343311 2.91615142 8.75623015 6.44617591 10.21875 11.90625 C10.94320099 18.64532898 11.32135722 25.19190423 7.21875 30.90625 C6.5322789 31.51223526 5.8458078 32.11822052 5.13853455 32.74256897 C2.80489964 35.37267743 2.72785479 36.49875704 2.75219727 39.96264648 C2.7486171 40.96726425 2.74503693 41.97188202 2.74134827 43.00694275 C2.7558049 44.08617508 2.77026154 45.16540741 2.78515625 46.27734375 C2.77555093 48.56575589 2.76578022 50.85416733 2.75585938 53.14257812 C2.76446469 56.74820693 2.78131088 60.35365811 2.8034668 63.95922852 C2.8179736 67.44062325 2.80274228 70.92098582 2.78515625 74.40234375 C2.80163712 75.47955185 2.81811798 76.55675995 2.83509827 77.66661072 C2.78510707 85.14984802 2.78510707 85.14984802 -0.16040039 89.08374023 C-2.99318472 91.05362706 -4.36633741 91.58460801 -7.78125 91.53125 C-9.01875 91.55058594 -9.01875 91.55058594 -10.28125 91.5703125 C-14.08084103 90.56104613 -15.40441662 89.04467866 -17.78125 85.90625 C-18.44969882 82.31904848 -18.31237869 78.80098883 -18.20703125 75.1640625 C-18.19912056 73.02474222 -18.19198309 70.88541897 -18.18554688 68.74609375 C-18.14600888 65.38610126 -18.09366351 62.02700924 -18.02514648 58.66748047 C-17.96812583 55.41563309 -17.96009112 52.16634448 -17.95703125 48.9140625 C-17.92192947 47.91593536 -17.8868277 46.91780823 -17.85066223 45.88943481 C-17.86620915 40.39256953 -17.86620915 40.39256953 -20.54800415 35.75552368 C-22.55495255 34.00793686 -24.62841761 32.46637541 -26.78125 30.90625 C-29.98192589 26.88650351 -30.13914433 23.8630731 -30.03125 18.78125 C-30.01578125 17.56179687 -30.0003125 16.34234375 -29.984375 15.0859375 C-29.78125 11.90625 -29.78125 11.90625 -28.78125 8.90625 C-23.819667 10.88402387 -20.8929283 14.98798984 -17.4140625 18.88671875 C-14.89340852 21.27678432 -14.89340852 21.27678432 -11.4609375 20.70703125 C-10.57664062 20.44277344 -9.69234375 20.17851562 -8.78125 19.90625 C-7.74850309 17.21862131 -7.74850309 17.21862131 -7.78125 13.90625 C-9.40039586 11.4399913 -11.51727306 9.60117302 -13.71875 7.65625 C-15.77712254 5.77036678 -17.78732536 3.86211147 -19.78125 1.90625 C-19.78125 1.24625 -19.78125 0.58625 -19.78125 -0.09375 C-13.60579264 -2.15223579 -6.09296636 -2.39611037 0 0 Z M-8.78125 3.90625 C-8.14896484 4.57720703 -8.14896484 4.57720703 -7.50390625 5.26171875 C-1.67842224 11.6903117 -1.67842224 11.6903117 -1.78125 15.90625 C-2.30395526 18.91774508 -3.06916526 21.35739073 -4.78125 23.90625 C-8.09936447 26.13504827 -11.38463321 26.87218618 -15.34375 26.96875 C-19.0779527 25.34102062 -21.83745351 22.68037523 -24.78125 19.90625 C-24.39229749 25.35158513 -22.5663547 28.03311961 -18.78125 31.90625 C-17.46986096 32.61510894 -16.13963072 33.29222716 -14.78125 33.90625 C-14.77538376 34.48396652 -14.76951752 35.06168304 -14.76347351 35.65690613 C-14.69948646 41.67564463 -14.61505307 47.69385105 -14.51879883 53.7121582 C-14.48556649 55.9575295 -14.45752931 58.202984 -14.43481445 60.44848633 C-14.40123798 63.67825743 -14.34891927 66.90726727 -14.29296875 70.13671875 C-14.28657883 71.13897995 -14.2801889 72.14124115 -14.27360535 73.1738739 C-14.19564211 80.06852551 -14.19564211 80.06852551 -10.78125 85.90625 C-7.78125 86.73958333 -7.78125 86.73958333 -4.78125 85.90625 C-0.63935517 81.30380753 -1.39264482 75.73022021 -1.4453125 69.91015625 C-1.43280197 67.72070015 -1.41976494 65.53124701 -1.40625 63.34179688 C-1.40231777 59.90085414 -1.4062863 56.46020224 -1.42089844 53.01928711 C-1.42947271 49.69080339 -1.4077811 46.36353318 -1.3828125 43.03515625 C-1.39615631 42.00999405 -1.40950012 40.98483185 -1.42324829 39.92860413 C-1.34089807 31.95466347 -1.34089807 31.95466347 1.69384766 28.33569336 C2.52706543 27.53397705 3.3602832 26.73226074 4.21875 25.90625 C6.076054 22.191642 5.66157906 17.96031882 5.21875 13.90625 C2.87995973 9.04876251 -0.05998365 6.46360261 -4.78125 3.90625 C-6.10125 3.90625 -7.42125 3.90625 -8.78125 3.90625 Z " fill="#000000" transform="translate(85.78125,5.09375)"/>
<path d="M0 0 C1.27230469 0.01804687 2.54460938 0.03609375 3.85546875 0.0546875 C4.83128906 0.07789062 5.80710938 0.10109375 6.8125 0.125 C6.8125 1.445 6.8125 2.765 6.8125 4.125 C6.07386719 4.15335938 5.33523437 4.18171875 4.57421875 4.2109375 C-5.09595253 5.12020392 -9.55838647 9.39775814 -16.1875 16.125 C-19.01200574 18.5097334 -21.29029652 19.63943646 -24.8828125 20.4765625 C-26.20345703 20.79367188 -26.20345703 20.79367188 -27.55078125 21.1171875 C-28.46214844 21.32601562 -29.37351562 21.53484375 -30.3125 21.75 C-32.12805278 22.17778803 -33.94317991 22.60738779 -35.7578125 23.0390625 C-36.96074951 23.3167749 -36.96074951 23.3167749 -38.18798828 23.60009766 C-40.23979522 24.06554283 -40.23979522 24.06554283 -42.1875 25.125 C-42.26836147 26.91593191 -42.32662702 28.70789628 -42.375 30.5 C-42.40980469 31.49773438 -42.44460937 32.49546875 -42.48046875 33.5234375 C-42.38378906 34.38195313 -42.28710938 35.24046875 -42.1875 36.125 C-41.1975 36.785 -40.2075 37.445 -39.1875 38.125 C-39.105 37.5475 -39.0225 36.97 -38.9375 36.375 C-37.87726281 33.19428843 -36.98768787 32.03732342 -34.1875 30.125 C-30.74052664 29.49033768 -27.63207622 29.46836027 -24.1875 30.125 C-21.0625 32.4375 -21.0625 32.4375 -19.1875 35.125 C-19.1875 36.115 -19.1875 37.105 -19.1875 38.125 C-7.3075 38.125 4.5725 38.125 16.8125 38.125 C16.8125 39.445 16.8125 40.765 16.8125 42.125 C4.9325 42.125 -6.9475 42.125 -19.1875 42.125 C-19.5175 43.445 -19.8475 44.765 -20.1875 46.125 C-21.625 48.375 -21.625 48.375 -24.1875 50.125 C-27.63447336 50.75966232 -30.74292378 50.78163973 -34.1875 50.125 C-37.3125 47.8125 -37.3125 47.8125 -39.1875 45.125 C-39.1875 44.135 -39.1875 43.145 -39.1875 42.125 C-40.13625 42.16625 -41.085 42.2075 -42.0625 42.25 C-45.1875 42.125 -45.1875 42.125 -47.1875 40.125 C-47.41455078 38.15380859 -47.41455078 38.15380859 -47.3828125 35.7734375 C-47.37314453 34.49726562 -47.37314453 34.49726562 -47.36328125 33.1953125 C-47.34652344 32.30585937 -47.32976563 31.41640625 -47.3125 30.5 C-47.30347656 29.6028125 -47.29445312 28.705625 -47.28515625 27.78125 C-47.2615497 25.56223414 -47.2286231 23.34374923 -47.1875 21.125 C-42.26320506 18.66285253 -37.86272043 17.00775133 -32.43823242 15.97119141 C-23.68777656 14.23787427 -18.68218156 11.00245477 -12.54296875 4.5859375 C-8.33704653 0.19169041 -5.94121975 -0.10901321 0 0 Z M-34.1875 37.125 C-34.52083333 40.125 -34.52083333 40.125 -34.1875 43.125 C-32.30249729 45.44063087 -32.30249729 45.44063087 -29.1875 45.375 C-26.07250271 45.44063087 -26.07250271 45.44063087 -24.1875 43.125 C-23.85416667 40.125 -23.85416667 40.125 -24.1875 37.125 C-26.07250271 34.80936913 -26.07250271 34.80936913 -29.1875 34.875 C-32.30249729 34.80936913 -32.30249729 34.80936913 -34.1875 37.125 Z " fill="#000000" transform="translate(47.1875,27.875)"/>
</svg>
