<?xml version="1.0" encoding="UTF-8"?>
<svg version="1.1" xmlns="http://www.w3.org/2000/svg" width="50" height="50">
<path d="M0 0 C3.66377743 0.57380172 5.32767225 1.97269658 7.890625 4.59765625 C8.59960938 5.31630859 9.30859375 6.03496094 10.0390625 6.77539062 C10.76867188 7.53013672 11.49828125 8.28488281 12.25 9.0625 C12.99507812 9.82111328 13.74015625 10.57972656 14.5078125 11.36132812 C16.34546694 13.23432207 18.17575724 15.11395611 20 17 C23.14991294 15.61263623 25.19935814 14.00943764 27.56640625 11.5234375 C28.21673828 10.853125 28.86707031 10.1828125 29.53710938 9.4921875 C30.89313999 8.07469745 32.24729316 6.6554091 33.59960938 5.234375 C34.24865234 4.56664062 34.89769531 3.89890625 35.56640625 3.2109375 C36.15365479 2.59524902 36.74090332 1.97956055 37.34594727 1.34521484 C39 0 39 0 42 0 C41.45634458 3.98416091 39.56534815 5.78363228 36.74609375 8.546875 C35.89208984 9.39121094 35.03808594 10.23554688 34.15820312 11.10546875 C33.26037109 11.97816406 32.36253906 12.85085937 31.4375 13.75 C30.08495117 15.08224609 30.08495117 15.08224609 28.70507812 16.44140625 C26.47662902 18.63448315 24.24148407 20.82026044 22 23 C16.55641494 20.64475039 12.87402321 16.20263267 8.75 12.0625 C7.90953125 11.23814453 7.0690625 10.41378906 6.203125 9.56445312 C5.4090625 8.77103516 4.615 7.97761719 3.796875 7.16015625 C2.70391113 6.07166382 2.70391113 6.07166382 1.58886719 4.96118164 C0 3 0 3 0 0 Z " fill="#000000" transform="translate(4,21)"/>
<path d="M0 0 C3.66377743 0.57380172 5.32767225 1.97269658 7.890625 4.59765625 C8.59960938 5.31630859 9.30859375 6.03496094 10.0390625 6.77539062 C10.76867188 7.53013672 11.49828125 8.28488281 12.25 9.0625 C12.99507812 9.82111328 13.74015625 10.57972656 14.5078125 11.36132812 C16.34546694 13.23432207 18.17575724 15.11395611 20 17 C23.14991294 15.61263623 25.19935814 14.00943764 27.56640625 11.5234375 C28.21673828 10.853125 28.86707031 10.1828125 29.53710938 9.4921875 C30.89313999 8.07469745 32.24729316 6.6554091 33.59960938 5.234375 C34.24865234 4.56664062 34.89769531 3.89890625 35.56640625 3.2109375 C36.15365479 2.59524902 36.74090332 1.97956055 37.34594727 1.34521484 C39 0 39 0 42 0 C41.45634458 3.98416091 39.56534815 5.78363228 36.74609375 8.546875 C35.89208984 9.39121094 35.03808594 10.23554688 34.15820312 11.10546875 C33.26037109 11.97816406 32.36253906 12.85085937 31.4375 13.75 C30.08495117 15.08224609 30.08495117 15.08224609 28.70507812 16.44140625 C26.47662902 18.63448315 24.24148407 20.82026044 22 23 C16.55641494 20.64475039 12.87402321 16.20263267 8.75 12.0625 C7.90953125 11.23814453 7.0690625 10.41378906 6.203125 9.56445312 C5.4090625 8.77103516 4.615 7.97761719 3.796875 7.16015625 C2.70391113 6.07166382 2.70391113 6.07166382 1.58886719 4.96118164 C0 3 0 3 0 0 Z " fill="#000000" transform="translate(4,8)"/>
</svg>
