<?xml version="1.0" encoding="UTF-8"?>
<svg version="1.1" xmlns="http://www.w3.org/2000/svg" width="100" height="100">
<path d="M0 0 C1.07426743 -0.0071553 2.14853485 -0.01431061 3.25535583 -0.02168274 C5.52903413 -0.02946067 7.80278706 -0.02444577 10.07641602 -0.00756836 C13.52311972 0.01152227 16.96571443 -0.02759059 20.41210938 -0.07226562 C41.9596567 -0.15080838 41.9596567 -0.15080838 50.99609375 6.69921875 C51.49109375 7.19421875 51.49109375 7.19421875 51.99609375 7.69921875 C53.89128694 7.77879918 55.78736296 7.83773862 57.68359375 7.88671875 C62.012415 8.1962888 64.62131412 8.53452789 67.74609375 11.63671875 C69.99609375 14.69921875 69.99609375 14.69921875 69.99609375 16.69921875 C71.13498047 16.66441406 71.13498047 16.66441406 72.296875 16.62890625 C73.29074219 16.61085938 74.28460938 16.5928125 75.30859375 16.57421875 C76.29472656 16.55101562 77.28085938 16.5278125 78.296875 16.50390625 C80.99609375 16.69921875 80.99609375 16.69921875 83.99609375 18.69921875 C84.37109375 21.69921875 84.37109375 21.69921875 83.99609375 24.69921875 C80.57515133 26.97984703 79.31422153 26.91846882 75.30859375 26.82421875 C73.81779297 26.79714844 73.81779297 26.79714844 72.296875 26.76953125 C71.53761719 26.74632813 70.77835937 26.723125 69.99609375 26.69921875 C69.62484375 27.56546875 69.62484375 27.56546875 69.24609375 28.44921875 C67.76530039 31.11464679 66.3885705 32.79611225 63.99609375 34.69921875 C61.26171875 35.1328125 61.26171875 35.1328125 58.24609375 35.13671875 C52.12821859 35.43478819 48.84640486 37.1779156 43.99609375 40.69921875 C39.71621704 42.83915711 38.22415674 42.69921875 32.99609375 42.69921875 C32.00609375 46.65921875 31.01609375 50.61921875 29.99609375 54.69921875 C25.04609375 55.19421875 25.04609375 55.19421875 19.99609375 55.69921875 C18.64759535 59.64306408 18.64759535 59.64306408 17.99609375 63.69921875 C19.82131803 66.35575604 19.82131803 66.35575604 21.99609375 68.69921875 C22.37109375 71.88671875 22.37109375 71.88671875 21.99609375 74.69921875 C19.99609375 76.69921875 19.99609375 76.69921875 17.29052734 76.92626953 C16.16984863 76.9157959 15.04916992 76.90532227 13.89453125 76.89453125 C12.6828125 76.88808594 11.47109375 76.88164063 10.22265625 76.875 C8.95164062 76.85824219 7.680625 76.84148437 6.37109375 76.82421875 C5.09234375 76.81519531 3.81359375 76.80617188 2.49609375 76.796875 C-0.67075792 76.77324178 -3.83724049 76.74029504 -7.00390625 76.69921875 C-9.21937291 72.37799704 -8.95494883 69.76478524 -7.88671875 65.0859375 C-7.60957031 63.83876953 -7.33242187 62.59160156 -7.046875 61.30664062 C-6.74120483 59.99992524 -6.43521116 58.69328549 -6.12890625 57.38671875 C-5.82937594 56.06085186 -5.53118422 54.73468181 -5.234375 53.40820312 C-4.50400294 50.16864964 -3.76009431 46.93282597 -3.00390625 43.69921875 C-4.92447917 43.6015625 -6.84505208 43.50390625 -8.765625 43.40625 C-12.23710761 42.30967347 -13.78065332 40.54314771 -16.00390625 37.69921875 C-16.65087891 34.2734375 -16.65087891 34.2734375 -16.66796875 30.38671875 C-16.67275238 29.69537842 -16.67753601 29.00403809 -16.6824646 28.29174805 C-16.68585361 26.83607699 -16.67672075 25.38032879 -16.65576172 23.92480469 C-16.62897171 21.70464378 -16.65553272 19.48953614 -16.6875 17.26953125 C-16.68419571 15.85024933 -16.67778906 14.43097054 -16.66796875 13.01171875 C-16.6623291 11.72910156 -16.65668945 10.44648438 -16.65087891 9.125 C-16.00390625 5.69921875 -16.00390625 5.69921875 -14.15014648 2.78588867 C-9.51820725 -0.28613621 -5.44938446 -0.036942 0 0 Z M-11.00390625 7.69921875 C-12.52484059 12.26202176 -12.22930108 16.79466443 -12.25390625 21.57421875 C-12.27453125 22.56808594 -12.29515625 23.56195313 -12.31640625 24.5859375 C-12.45603853 31.68713025 -12.45603853 31.68713025 -9.00390625 37.69921875 C-2.76141117 39.78005044 4.52779739 39.04833046 11.08032227 39.10424805 C12.96657752 39.12571394 14.8527363 39.15967931 16.73852539 39.20678711 C28.20365218 39.49021287 37.28067588 39.53555109 46.99609375 32.69921875 C49.33067071 30.36464179 48.46466856 25.07714606 48.55859375 21.94921875 C48.62111328 21.04171875 48.68363281 20.13421875 48.74804688 19.19921875 C48.81347328 16.48699681 48.75296157 14.30802115 47.99609375 11.69921875 C45.64014979 9.28523283 43.08462886 7.99214134 39.99609375 6.69921875 C39.27429932 6.33449463 38.55250488 5.96977051 37.80883789 5.59399414 C33.77109553 4.30952875 29.92792254 4.39394822 25.71484375 4.3984375 C24.82373901 4.39415237 23.93263428 4.38986725 23.01452637 4.38545227 C21.13518115 4.37972306 19.25581377 4.3791983 17.37646484 4.38354492 C14.50579988 4.38670805 11.63616292 4.36321745 8.765625 4.33789062 C6.93619921 4.33561776 5.10677066 4.33491408 3.27734375 4.3359375 C2.4220105 4.32672775 1.56667725 4.31751801 0.6854248 4.30802917 C-3.99295549 4.34425868 -7.26337076 4.55799812 -11.00390625 7.69921875 Z M51.99609375 12.69921875 C51.99609375 18.63921875 51.99609375 24.57921875 51.99609375 30.69921875 C59.45301421 31.41659935 59.45301421 31.41659935 62.93359375 28.82421875 C65.37626004 26.30753226 65.92199177 25.36613656 66.30859375 21.88671875 C65.92445017 17.96845425 64.70353058 16.48628608 61.99609375 13.69921875 C59.17620216 12.10293396 59.17620216 12.10293396 51.99609375 12.69921875 Z M69.99609375 20.69921875 C69.99609375 21.35921875 69.99609375 22.01921875 69.99609375 22.69921875 C72.30609375 22.69921875 74.61609375 22.69921875 76.99609375 22.69921875 C76.99609375 22.03921875 76.99609375 21.37921875 76.99609375 20.69921875 C74.68609375 20.69921875 72.37609375 20.69921875 69.99609375 20.69921875 Z M1.99609375 42.69921875 C1.15684597 46.76057854 0.32448115 50.82314273 -0.50390625 54.88671875 C-0.74238281 56.03720703 -0.98085937 57.18769531 -1.2265625 58.37304688 C-1.45214844 59.48486328 -1.67773438 60.59667969 -1.91015625 61.7421875 C-2.11962891 62.7633667 -2.32910156 63.7845459 -2.54492188 64.83666992 C-3.13583869 68.03885671 -3.13583869 68.03885671 -3.00390625 72.69921875 C3.26609375 72.69921875 9.53609375 72.69921875 15.99609375 72.69921875 C16.33579777 69.68279972 16.33579777 69.68279972 14.43359375 68.01171875 C12.70734409 65.23470843 12.80932879 63.5137487 13.3359375 60.3359375 C14.83798783 54.33662404 16.96370288 48.53582843 18.99609375 42.69921875 C13.38609375 42.69921875 7.77609375 42.69921875 1.99609375 42.69921875 Z M24.99609375 43.69921875 C22.29962524 46.91034248 22.29962524 46.91034248 20.99609375 50.69921875 C22.64609375 50.69921875 24.29609375 50.69921875 25.99609375 50.69921875 C26.32609375 48.38921875 26.65609375 46.07921875 26.99609375 43.69921875 C26.33609375 43.69921875 25.67609375 43.69921875 24.99609375 43.69921875 Z " fill="#000000" transform="translate(16.00390625,13.30078125)"/>
</svg>
