<?xml version="1.0" encoding="UTF-8"?>
<svg version="1.1" xmlns="http://www.w3.org/2000/svg" width="100" height="100">
<path d="M0 0 C1.36125 0.7115625 1.36125 0.7115625 2.75 1.4375 C11.1578098 6.29534566 20.00137462 13.94596967 24 23 C21.72837019 32.60959187 11.88156042 40.79192043 4 46 C-8.11843111 52.46960067 -20.82234399 53.95542928 -34.375 51.3515625 C-37.08095302 50.43122383 -39.48439433 49.3545569 -42 48 C-42.9075 47.525625 -43.815 47.05125 -44.75 46.5625 C-53.1578098 41.70465434 -62.00137462 34.05403033 -66 25 C-63.72837019 15.39040813 -53.88156042 7.20807957 -46 2 C-32.19581523 -5.36956478 -14.25628812 -7.67646284 0 0 Z M-50 12 C-50.33 12.66 -50.66 13.32 -51 14 C-50.29875 13.80664062 -49.5975 13.61328125 -48.875 13.4140625 C-47.92625 13.15367188 -46.9775 12.89328125 -46 12.625 C-45.071875 12.36976562 -44.14375 12.11453125 -43.1875 11.8515625 C-42.135625 11.57054687 -41.08375 11.28953125 -40 11 C-38.77152344 10.64550781 -37.54304688 10.29101562 -36.27734375 9.92578125 C-31.38766636 8.72220403 -26.58131911 8.57708445 -21.5625 8.5625 C-20.13019043 8.55561157 -20.13019043 8.55561157 -18.66894531 8.54858398 C-10.62913008 8.67248983 -3.68018353 10.33444684 3.859375 13.00390625 C6.86407851 14.35824914 6.86407851 14.35824914 9 13 C-1.30225758 3.34163352 -11.61019844 0.37417351 -25.5078125 0.69140625 C-35.34446 1.18590605 -42.89770048 5.29410789 -50 12 Z M-38 15 C-38.5108927 22.44651684 -38.5108927 22.44651684 -36.3125 29.4375 C-32.62020869 33.52895794 -29.41718995 36.69415856 -23.73046875 37.203125 C-18.38307006 37.30169456 -14.53138755 37.16143318 -10 34 C-6.58175187 30.60032931 -4.09869245 27.50678815 -3.90234375 22.51953125 C-3.91394531 21.62621094 -3.92554688 20.73289062 -3.9375 19.8125 C-3.94652344 18.91144531 -3.95554688 18.01039062 -3.96484375 17.08203125 C-3.97644531 16.39496094 -3.98804688 15.70789063 -4 15 C-6.97 14.34 -9.94 13.68 -13 13 C-12.67 13.66 -12.34 14.32 -12 15 C-11.90414869 16.64356807 -11.87016489 18.29114642 -11.875 19.9375 C-11.87113281 21.25041016 -11.87113281 21.25041016 -11.8671875 22.58984375 C-12 25 -12 25 -13 28 C-15.94826763 28.98275588 -17.92652504 29.13414725 -21 29.125 C-22.299375 29.12886719 -22.299375 29.12886719 -23.625 29.1328125 C-26 29 -26 29 -29 28 C-29.98783094 25.03650719 -30.13410525 23.0287337 -30.125 19.9375 C-30.12757812 19.05964844 -30.13015625 18.18179688 -30.1328125 17.27734375 C-30 15 -30 15 -29 13 C-32.15332957 13 -34.99457031 14.10950231 -38 15 Z M-51.5625 20.5 C-52.27341797 20.83386719 -52.98433594 21.16773438 -53.71679688 21.51171875 C-55.47866585 22.33944243 -57.2394356 23.16950512 -59 24 C-56.32429975 32.23292385 -48.39434261 38.90233311 -40.95703125 43.0390625 C-40.31121094 43.35617188 -39.66539063 43.67328125 -39 44 C-38.38511719 44.31710938 -37.77023438 44.63421875 -37.13671875 44.9609375 C-28.01513555 48.82211252 -15.24170473 48.48203526 -5.9375 45.4375 C-0.62335429 43.12629421 3.70836323 39.85519913 8 36 C8.67417969 35.39542969 9.34835938 34.79085937 10.04296875 34.16796875 C13.45370124 30.94007965 15.41361394 28.49092864 17 24 C14.52189684 22.83102715 12.04259881 21.66472456 9.5625 20.5 C8.85544922 20.16613281 8.14839844 19.83226562 7.41992188 19.48828125 C4.33313779 17.7642357 4.33313779 17.7642357 1 17 C0.98582031 17.6290625 0.97164062 18.258125 0.95703125 18.90625 C0.51489946 26.84072329 -1.71611698 31.95640111 -7.5625 37.375 C-14.16428844 41.77619229 -20.14241722 41.85351123 -28 41 C-31.21644488 39.83809046 -33.4776174 38.28419151 -36 36 C-36.94875 35.175 -37.8975 34.35 -38.875 33.5 C-42.45254777 28.94675739 -42.44729633 22.56003389 -43 17 C-45.76315784 17 -49.0313483 19.30479801 -51.5625 20.5 Z " fill="#000000" transform="translate(71,42)"/>
<path d="M0 0 C0.92941406 0.43570312 1.85882813 0.87140625 2.81640625 1.3203125 C9.54435842 4.74511152 15.32345533 9.04664514 21 14 C21.64582031 14.56203125 22.29164062 15.1240625 22.95703125 15.703125 C24.625 17.25 24.625 17.25 27 20 C27 21.32 27 22.64 27 24 C21.67882336 23.72711915 18.70122754 21.57497582 14.49609375 18.625 C3.8929387 11.72216354 -7.39885418 8.59703842 -20 10 C-33.31050454 13.47825942 -46.59179929 20.39453286 -58 28 C-62.93012739 28.79383407 -66.80794774 28.71523135 -71.125 26.125 C-73.37866363 22.36889395 -73.59681096 19.80409853 -73.6640625 15.5 C-72.69724857 11.86022992 -70.87638096 10.37869652 -68 8 C-63.21090851 5.48819557 -58.10496979 3.76022222 -53 2 C-52.19900879 1.71914551 -51.39801758 1.43829102 -50.57275391 1.14892578 C-34.02155405 -4.51982011 -16.45547837 -7.78071077 0 0 Z M-68 15 C-68.33333333 18 -68.33333333 18 -68 21 C-66.14312876 23.27281073 -66.14312876 23.27281073 -63.2565918 23.30761719 C-59.48345635 22.95120736 -57.21541638 21.88757998 -53.89453125 20.078125 C-52.17073242 19.15773438 -52.17073242 19.15773438 -50.41210938 18.21875 C-49.21170446 17.56347935 -48.01183652 16.90722408 -46.8125 16.25 C-25.55269457 4.68083283 -25.55269457 4.68083283 -13.8125 4.25 C-11.87310547 4.16492188 -11.87310547 4.16492188 -9.89453125 4.078125 C-8.93933594 4.05234375 -7.98414063 4.0265625 -7 4 C-21.18398549 -5.45599033 -56.42814229 3.42814229 -68 15 Z " fill="#000000" transform="translate(73,10)"/>
</svg>
