<svg xmlns="http://www.w3.org/2000/svg" xmlns:xlink="http://www.w3.org/1999/xlink" viewBox="0,0,256,256" width="60px" height="60px" fill-rule="nonzero"><g fill="none" fill-rule="nonzero" stroke="none" stroke-width="1" stroke-linecap="butt" stroke-linejoin="miter" stroke-miterlimit="10" stroke-dasharray="" stroke-dashoffset="0" font-family="none" font-weight="none" font-size="none" text-anchor="none" style="mix-blend-mode: normal"><g transform="scale(0.53355,0.53355)"><path d="M460.624,207.914c15.04,18.67 15.04,45.31 0,63.98l-13.18,16.36c-7.85,9.74 -11.84,22.03 -11.22,34.53l1.05,20.97c1.19,23.95 -14.46,45.5 -37.61,51.77l-20.27,5.48c-12.08,3.27 -22.53,10.87 -29.38,21.35l-11.48,17.58c-13.11,20.08 -38.44,28.31 -60.85,19.77l-19.62,-7.48c-11.7,-4.45 -24.62,-4.45 -36.32,0l-19.62,7.48c-22.41,8.54 -47.74,0.31 -60.85,-19.77l-11.48,-17.58c-6.85,-10.48 -17.3,-18.08 -29.38,-21.35l-20.27,-5.48c-23.15,-6.27 -38.8,-27.82 -37.61,-51.77l1.05,-20.97c0.62,-12.5 -3.37,-24.79 -11.22,-34.53l-13.18,-16.36c-15.04,-18.67 -15.04,-45.31 0,-63.98l13.18,-16.36c7.85,-9.74 11.84,-22.03 11.22,-34.53l-1.05,-20.97c-1.19,-23.95 14.46,-45.5 37.61,-51.77l20.27,-5.48c12.08,-3.27 22.53,-10.87 29.38,-21.35l11.48,-17.58c13.11,-20.08 38.44,-28.31 60.85,-19.77l19.62,7.48c11.7,4.45 24.62,4.45 36.32,0l19.62,-7.48c22.41,-8.54 47.74,-0.31 60.85,19.77l11.48,17.58c6.85,10.48 17.3,18.08 29.38,21.35l20.27,5.48c23.15,6.27 38.8,27.82 37.61,51.77l-1.05,20.97c-0.62,12.5 3.37,24.79 11.22,34.53z" fill="#e9e475"></path><path d="M460.624,271.894l-13.18,16.36c-7.85,9.74 -11.84,22.03 -11.22,34.53l1.05,20.97c1.19,23.95 -14.46,45.5 -37.61,51.77l-20.27,5.48c-12.08,3.27 -22.53,10.87 -29.38,21.35l-11.48,17.58c-13.11,20.08 -38.44,28.31 -60.85,19.77l-19.62,-7.48c-11.7,-4.45 -24.62,-4.45 -36.32,0l-19.62,7.48c-22.41,8.54 -47.74,0.31 -60.85,-19.77l-11.48,-17.58c-6.85,-10.48 -17.3,-18.08 -29.38,-21.35l-20.27,-5.48c-11.303,-3.064 -20.817,-9.768 -27.455,-18.615c-6.007,-8.005 2.024,-18.917 11.562,-15.884c162.619,51.713 332.33,-55.076 352.46,-226.954c1.54,-13.146 21.116,-11.74 20.585,1.484c-0.017,0.419 -1.051,21.051 -1.072,21.469c-0.62,12.5 3.37,24.79 11.22,34.53l13.18,16.36c15.04,18.67 15.04,45.31 0,63.98z" fill="#bdaa4d"></path><circle cx="239.904" cy="239.904" r="161" fill="#ffffe8"></circle><path d="M239.904,400.904c-32.68,0 -63.22,-9.95 -88.73,-26.96c108.744,-1.378 204.872,-66.228 246.41,-166.42c20.676,99.395 -56.614,193.38 -157.68,193.38z" fill="#e9e475"></path><path d="M466.85,276.916l-13.173,16.352c-6.627,8.226 -9.986,18.566 -9.46,29.116l1.045,20.972c1.372,27.505 -16.927,52.691 -43.51,59.887l-20.269,5.486c-10.196,2.76 -18.992,9.15 -24.768,17.995l-11.48,17.581c-15.058,23.059 -44.665,32.681 -70.402,22.875l-19.622,-7.475c-9.871,-3.761 -20.743,-3.761 -30.614,0l-19.622,7.475c-25.735,9.804 -55.343,0.186 -70.402,-22.875l-11.48,-17.581c-5.775,-8.844 -14.571,-15.235 -24.768,-17.995l-20.269,-5.486c-26.584,-7.196 -44.883,-32.382 -43.511,-59.887c0.22,-4.413 3.979,-7.795 8.389,-7.592c4.413,0.22 7.812,3.976 7.592,8.389c-1,20.046 12.336,38.402 31.71,43.646l20.268,5.486c13.991,3.787 26.06,12.555 33.984,24.691l11.48,17.581c10.975,16.806 32.555,23.816 51.309,16.671l19.622,-7.475c13.545,-5.159 28.462,-5.159 42.007,0l19.622,7.475c18.755,7.147 40.335,0.135 51.309,-16.671l11.48,-17.581c7.924,-12.136 19.994,-20.904 33.984,-24.691l20.269,-5.486c19.374,-5.244 32.71,-23.6 31.71,-43.646l-1.045,-20.972c-0.722,-14.476 3.888,-28.664 12.98,-39.951l13.173,-16.352c12.592,-15.63 12.592,-38.319 0,-53.95l-13.173,-16.351c-9.093,-11.288 -13.703,-25.476 -12.98,-39.951l1.045,-20.972c1,-20.046 -12.336,-38.402 -31.71,-43.646l-20.268,-5.486c-13.991,-3.787 -26.06,-12.555 -33.984,-24.691l-11.48,-17.581c-10.975,-16.806 -32.555,-23.816 -51.309,-16.671l-19.622,7.475c-13.545,5.159 -28.462,5.159 -42.007,0l-19.622,-7.475c-18.754,-7.146 -40.334,-0.134 -51.309,16.671l-11.48,17.581c-7.924,12.136 -19.994,20.904 -33.984,24.691l-20.269,5.486c-19.374,5.244 -32.71,23.6 -31.71,43.646l1.045,20.972c0.722,14.476 -3.888,28.664 -12.98,39.951l-13.173,16.352c-12.592,15.63 -12.592,38.319 0,53.95l13.173,16.351c2.771,3.441 2.229,8.477 -1.211,11.249c-3.44,2.771 -8.476,2.229 -11.249,-1.211l-13.173,-16.352c-17.277,-21.447 -17.277,-52.579 0,-74.025l13.173,-16.352c6.627,-8.226 9.986,-18.566 9.46,-29.116l-1.045,-20.972c-1.372,-27.505 16.927,-52.691 43.51,-59.887l20.269,-5.486c10.196,-2.76 18.992,-9.15 24.768,-17.995l11.48,-17.581c15.059,-23.059 44.667,-32.681 70.402,-22.875l19.622,7.475c9.871,3.761 20.743,3.761 30.614,0l19.622,-7.475c25.737,-9.805 55.344,-0.184 70.402,22.875l11.48,17.581c5.775,8.844 14.571,15.235 24.768,17.995l20.269,5.486c26.584,7.196 44.883,32.382 43.511,59.887l-1.045,20.972c-0.526,10.55 2.833,20.891 9.46,29.117l13.173,16.351c17.276,21.447 17.276,52.579 -0.001,74.025zM162.529,83.141c-106.008,52.868 -132.172,194.239 -46.137,280.275c68.677,68.677 178.315,68.708 247.023,0c68.677,-68.677 68.708,-178.315 0,-247.023c-33.203,-33.203 -77.066,-51.488 -123.512,-51.488c-4.418,0 -8,3.582 -8,8c0,4.418 3.582,8 8,8c87.673,0 159,71.327 159,159c0,87.673 -71.327,159 -159,159c-87.673,0 -159,-71.327 -159,-159c0,-59.64 34.843,-115.552 88.766,-142.445c3.954,-1.972 5.561,-6.776 3.589,-10.729c-1.971,-3.956 -6.775,-5.562 -10.729,-3.59zM171.904,323.904c0,4.418 3.582,8 8,8h120c4.418,0 8,-3.582 8,-8c0,-4.418 -3.582,-8 -8,-8h-120c-4.419,0 -8,3.581 -8,8zM160.704,214.904c4.418,0 8,-3.582 8,-8c0,-4.418 -3.582,-8 -8,-8h-39.6c-4.418,0 -8,3.582 -8,8v66c0,4.418 3.582,8 8,8c4.418,0 8,-3.582 8,-8v-25h25c4.418,0 8,-3.582 8,-8c0,-4.418 -3.582,-8 -8,-8h-25v-17zM292.704,214.904c4.418,0 8,-3.582 8,-8c0,-4.418 -3.582,-8 -8,-8h-39.6c-4.418,0 -8,3.582 -8,8v66c0,4.418 3.582,8 8,8h39.6c4.418,0 8,-3.582 8,-8c0,-4.418 -3.582,-8 -8,-8h-31.6v-17h18.4c4.418,0 8,-3.582 8,-8c0,-4.418 -3.582,-8 -8,-8h-18.4v-17zM234.704,223.404c0,-13.509 -10.991,-24.5 -24.5,-24.5h-23.1c-4.418,0 -8,3.582 -8,8v66c0,4.418 3.582,8 8,8c4.418,0 8,-3.582 8,-8v-58h15.1c4.687,0 8.5,3.813 8.5,8.5c0,4.687 -3.813,8.5 -8.5,8.5c-3.202,0 -7.656,-0.544 -10.261,4.059c-1.42,2.508 -1.381,5.586 0.102,8.057l19.8,33c2.275,3.793 7.191,5.015 10.976,2.744c3.789,-2.273 5.018,-7.187 2.744,-10.976l-13.717,-22.862c8.728,-3.752 14.856,-12.435 14.856,-22.522zM358.704,214.904c4.418,0 8,-3.582 8,-8c0,-4.418 -3.582,-8 -8,-8h-39.6c-4.418,0 -8,3.582 -8,8v66c0,4.418 3.582,8 8,8h39.6c4.418,0 8,-3.582 8,-8c0,-4.418 -3.582,-8 -8,-8h-31.6v-17h18.4c4.418,0 8,-3.582 8,-8c0,-4.418 -3.582,-8 -8,-8h-18.4v-17z" fill="#524f44"></path></g></g></svg>