<svg xmlns="http://www.w3.org/2000/svg" xmlns:xlink="http://www.w3.org/1999/xlink" viewBox="0,0,256,256" width="48px" height="48px" fill-rule="nonzero"><defs><linearGradient x1="11.105" y1="7.154" x2="21.565" y2="26.826" gradientUnits="userSpaceOnUse" id="color-1"><stop offset="0" stop-color="#6cb8f4"></stop><stop offset="1" stop-color="#f0f7fc"></stop></linearGradient><linearGradient x1="27.07" y1="22.368" x2="35.418" y2="38.068" gradientUnits="userSpaceOnUse" id="color-2"><stop offset="0" stop-color="#6cb8f4"></stop><stop offset="1" stop-color="#f0f7fc"></stop></linearGradient><linearGradient x1="25.861" y1="3.01" x2="38.232" y2="26.275" gradientUnits="userSpaceOnUse" id="color-3"><stop offset="0.076" stop-color="#0093eb"></stop><stop offset="1" stop-color="#4982f5"></stop></linearGradient><linearGradient x1="12.444" y1="20.303" x2="24.814" y2="43.567" gradientUnits="userSpaceOnUse" id="color-4"><stop offset="0.076" stop-color="#0093eb"></stop><stop offset="1" stop-color="#4982f5"></stop></linearGradient></defs><g fill="none" fill-rule="nonzero" stroke="none" stroke-width="1" stroke-linecap="butt" stroke-linejoin="miter" stroke-miterlimit="10" stroke-dasharray="" stroke-dashoffset="0" font-family="none" font-weight="none" font-size="none" text-anchor="none" style="mix-blend-mode: normal"><g transform="scale(5.33333,5.33333)"><path d="M24,4l1,12.5v8.5h-8.385l-11.125,-1c-0.31,-1.29 -0.49,-2.62 -0.49,-4c0,-3.14 0,-9 0,-9c0,-0.55 0.45,-1 1,-1c11.12,0 11.28,-6 18,-6z" fill="url(#color-1)"></path><path d="M42.51,24c-2.94,12.01 -18.08,19.91 -18.08,19.91c0,0 -0.23,0.09 -0.43,0.09l-1,-12.5l1,-7.5l7.917,-1z" fill="url(#color-2)"></path><path d="M43,11c0,0 0,5.86 0,9c0,1.38 -0.18,2.71 -0.49,4h-18.51v-20c6.72,0 6.88,6 18,6c0.55,0 1,0.45 1,1z" fill="url(#color-3)"></path><path d="M24,24v20c-0.22,0 -0.43,-0.09 -0.43,-0.09c0,0 -15.14,-7.9 -18.08,-19.91z" fill="url(#color-4)"></path></g></g></svg>