<svg xmlns="http://www.w3.org/2000/svg"  viewBox="0 0 64 64" width="64px" height="64px"><path fill="#85cbf8" d="M41.71,28.84a10,10,0,0,1-3.85,4L36,33.88a2.57,2.57,0,0,1-3.33-.69h0a2.57,2.57,0,0,1,.65-3.69l2.42-1.59a5,5,0,0,0,2-2.48L38.19,24a10,10,0,0,1,7-6.29h0a10.92,10.92,0,0,1,5.65.09l1.12.32A10,10,0,0,1,57,21.49h0a9.16,9.16,0,0,1,2,5.72V36.5A2.5,2.5,0,0,1,56.5,39h0A2.5,2.5,0,0,1,54,36.5V37l.86,18.86a3,3,0,0,1-3,3.14h0a3,3,0,0,1-3-2.85L48,39h0l-.86,17.15a3,3,0,0,1-3,2.85h0a3,3,0,0,1-3-3.14L42,37V25.63"/><path fill="#ed7899" d="M21,25.63l3.15,4A10,10,0,0,0,28.85,33l2.87,1A2.49,2.49,0,0,0,35,31.55h0a2.49,2.49,0,0,0-1.39-2.23L30.2,27.64a5,5,0,0,1-2.06-1.88L26,22.32a10,10,0,0,0-5.78-4.39h0a11.84,11.84,0,0,0-6.51,0l-.39.11A10,10,0,0,0,8,21.84l-1.79,2.5a4,4,0,0,0-.54,3.59l1.67,5A3,3,0,0,0,10.16,35H11"/><path fill="#ed7899" d="M11,25.67V37L9.14,55.86a3,3,0,0,0,3,3.14h0a3,3,0,0,0,3-2.85L17,39h0l-.14,17.15a3,3,0,0,0,3,2.85h0a3,3,0,0,0,3-3.14L23,37V25.63"/><path fill="#faefde" d="M48 5A5 5 0 1 0 48 15 5 5 0 1 0 48 5zM18 5A5 5 0 1 0 18 15 5 5 0 1 0 18 5z"/><path fill="#8d6c9f" d="M48 16a6 6 0 1 0-6-6A6 6 0 0 0 48 16zM48 5.76A4.24 4.24 0 1 1 43.76 10 4.25 4.25 0 0 1 48 5.76zM18 16a6 6 0 1 0-6-6A6 6 0 0 0 18 16zM18 5.76A4.24 4.24 0 1 1 13.76 10 4.25 4.25 0 0 1 18 5.76zM57.73 20.81a10.93 10.93 0 0 0-5.52-3.65l-1.12-.32q-.43-.12-.87-.21A11.77 11.77 0 0 0 37 24.35l-.27.74a4 4 0 0 1-1.57 2l-1.65 1.08-2.87-1.41A4 4 0 0 1 29 25.24l-1.59-2.59a12.48 12.48 0 0 0-13-5.91q-.45.09-.89.22l-.39.11a11 11 0 0 0-5.93 4.18l-1.79 2.5a5 5 0 0 0-.68 4.49l1.67 5A4 4 0 0 0 10 36v.91L8.14 55.82A4 4 0 0 0 16 57.09a4 4 0 0 0 6.75 1.68 3.93 3.93 0 0 0 1.1-2.89L24 37V31a10.94 10.94 0 0 0 4.54 2.94l2.88 1a3.45 3.45 0 0 0 1.92.06 3.53 3.53 0 0 0 3.13-.18l1.89-1.08A11 11 0 0 0 41 31.55V37l-.85 18.73a4.17 4.17 0 0 0 .78 2.7A4 4 0 0 0 48 57.08a4 4 0 0 0 7.08 1.31 4.17 4.17 0 0 0 .77-2.7l-.73-16a3.51 3.51 0 0 0 1.95.24A3.59 3.59 0 0 0 60 36.37V27.53A10.65 10.65 0 0 0 57.73 20.81zM29.17 32a9 9 0 0 1-4.24-3l-3.15-4a1 1 0 0 0-1.57 1.23l1.8 2.3s0 .05 0 .08V37l-.14 18.92a2 2 0 0 1-4 .25L18 39a1 1 0 0 0-2-.12L14.14 56.1a2 2 0 0 1-3.45 1.28A2 2 0 0 1 10.14 56L12 37V25.67a1 1 0 0 0-2 0V34a2 2 0 0 1-1.74-1.34l-1.67-5A3 3 0 0 1 7 24.92l1.79-2.5A9 9 0 0 1 13.63 19l.39-.11q.43-.12.86-.21a10.46 10.46 0 0 1 10.8 5l1.6 2.61a6 6 0 0 0 2.47 2.25l3.41 1.68A1.49 1.49 0 0 1 32 33zM58 36.5a1.5 1.5 0 0 1-3 0V25.67a1 1 0 0 0-2 0V36.5s0 .06 0 .08l.86 19.33A2 2 0 0 1 51.68 58a2.07 2.07 0 0 1-1.83-2L49 39a1 1 0 0 0-2 0l-.85 17a2.1 2.1 0 0 1-1.81 2 2 2 0 0 1-2.19-2.08L43 37V25.63a1 1 0 0 0-2 0v2.5a1 1 0 0 0-.13.17 10.27 10.27 0 0 1-3.38 3.56l-1.76 1a3.4 3.4 0 0 0-.46-3.46l1-.65a6 6 0 0 0 2.35-3l.28-.78a9.74 9.74 0 0 1 10.83-6.43q.41.08.82.2l1.12.32a9 9 0 0 1 4.56 3A8.57 8.57 0 0 1 58 27.48zM28 12a1 1 0 0 0 1-1V9a1 1 0 0 0-2 0v2A1 1 0 0 0 28 12zM33 12a1 1 0 0 0 1-1V9a1 1 0 0 0-2 0v2A1 1 0 0 0 33 12zM38 12a1 1 0 0 0 1-1V9a1 1 0 0 0-2 0v2A1 1 0 0 0 38 12z"/></svg>