<?xml version="1.0" encoding="UTF-8"?>
<svg version="1.1" xmlns="http://www.w3.org/2000/svg" width="100" height="100">
<path d="M0 0 C5.56875 -0.04125 11.1375 -0.0825 16.875 -0.125 C19.51024658 -0.15231201 19.51024658 -0.15231201 22.19873047 -0.18017578 C23.58821303 -0.18601593 24.97769901 -0.19111262 26.3671875 -0.1953125 C27.09107666 -0.20554443 27.81496582 -0.21577637 28.56079102 -0.22631836 C30.37542936 -0.22695396 32.18951973 -0.12277575 34 0 C36 2 36 2 36.1953125 4.8203125 C36.17210937 5.91085938 36.14890625 7.00140625 36.125 8.125 C36.10695312 9.22070312 36.08890625 10.31640625 36.0703125 11.4453125 C36.04710937 12.28835937 36.02390625 13.13140625 36 14 C36.63502441 13.97381592 37.27004883 13.94763184 37.92431641 13.9206543 C40.82428878 13.81619605 43.7238647 13.75152253 46.625 13.6875 C47.62402344 13.64560547 48.62304688 13.60371094 49.65234375 13.56054688 C57.99921468 13.42235365 57.99921468 13.42235365 61.41015625 16.1015625 C64.15212902 19.170256 66.55389932 22.25489346 68.8125 25.6875 C69.20630859 26.26822266 69.60011719 26.84894531 70.00585938 27.44726562 C74.70684325 34.42213878 74.18340524 39.67944911 74.1875 48 C74.19974609 49.3096875 74.21199219 50.619375 74.22460938 51.96875 C74.22654297 53.2165625 74.22847656 54.464375 74.23046875 55.75 C74.23457764 56.89984375 74.23868652 58.0496875 74.24291992 59.234375 C74 62 74 62 72 64 C68.875 64.125 68.875 64.125 66 64 C65.95875 64.721875 65.9175 65.44375 65.875 66.1875 C64.89462988 69.33868966 63.57459935 71.04428001 60.94140625 73.04296875 C57.06001175 74.95633224 53.17514051 74.84585505 49 74 C46.2155166 72.62736734 45.10748414 71.43171247 43 69 C42.67 67.35 42.34 65.7 42 64 C32.1 64 22.2 64 12 64 C11.67 65.65 11.34 67.3 11 69 C8.291142 72.12560538 6.64691531 73.66634617 2.58984375 74.48828125 C-1.86381856 74.72339163 -5.02846028 74.48629481 -8.5625 71.625 C-12.30158542 67.59829262 -12.40957541 64.90462282 -12.33984375 59.55078125 C-11.76658632 55.24805593 -10.33821327 53.77000676 -7 51 C-3.535 50.505 -3.535 50.505 0 50 C0 33.5 0 17 0 0 Z M4 4 C3.84773067 10.45924638 3.74273607 16.91802932 3.67041016 23.37866211 C3.64025716 25.57577815 3.59932737 27.77277401 3.54736328 29.96948242 C3.47448474 33.12969612 3.44052853 36.28831741 3.4140625 39.44921875 C3.38309479 40.42960617 3.35212708 41.40999359 3.32022095 42.42008972 C3.17501775 47.35284386 3.17501775 47.35284386 5.30535889 51.58828735 C6.82804196 52.78143281 8.41310472 53.89368937 10 55 C10.66 56.65 11.32 58.3 12 60 C18.6 60 25.2 60 32 60 C32.0493206 52.34620105 32.08568181 44.69249396 32.10986328 37.03857422 C32.11994064 34.43308909 32.1336027 31.82761531 32.15087891 29.22216797 C32.17505102 25.48402101 32.1864656 21.74602315 32.1953125 18.0078125 C32.20563507 16.83695099 32.21595764 15.66608948 32.22659302 14.45974731 C32.22674408 13.37877777 32.22689514 12.29780823 32.22705078 11.18408203 C32.23371262 9.75178757 32.23371262 9.75178757 32.24050903 8.29055786 C32.22220188 5.80260164 32.22220188 5.80260164 30 4 C27.28065665 3.72155068 27.28065665 3.72155068 24.1171875 3.8046875 C22.36728516 3.81435547 22.36728516 3.81435547 20.58203125 3.82421875 C19.35871094 3.84097656 18.13539062 3.85773437 16.875 3.875 C15.02841797 3.88853516 15.02841797 3.88853516 13.14453125 3.90234375 C10.09616185 3.92597452 7.04817618 3.95891946 4 4 Z M36 20 C35.82453518 23.01308951 35.76872555 25.93310454 35.8046875 28.9453125 C35.8075174 29.8303244 35.81034729 30.7153363 35.81326294 31.62716675 C35.8244776 34.45991412 35.8495843 37.29234784 35.875 40.125 C35.88502815 42.04296419 35.89415428 43.96093333 35.90234375 45.87890625 C35.92442111 50.58605876 35.95895955 55.29297616 36 60 C37.98 60 39.96 60 42 60 C42.4125 59.071875 42.825 58.14375 43.25 57.1875 C45.00714902 53.98697857 45.94816218 52.84302817 49 51 C53.74385682 50.1437917 57.78389003 50.31593814 62 52.6875 C64.05540521 55.06406228 65.08601908 57.0087897 66 60 C67.32 59.34 68.64 58.68 70 58 C70 52.72 70 47.44 70 42 C67.63521484 41.90912109 67.63521484 41.90912109 65.22265625 41.81640625 C63.16926057 41.73202013 61.11587569 41.64737117 59.0625 41.5625 C58.02158203 41.52318359 56.98066406 41.48386719 55.90820312 41.44335938 C54.42416992 41.38051758 54.42416992 41.38051758 52.91015625 41.31640625 C51.99371338 41.27974854 51.07727051 41.24309082 50.13305664 41.20532227 C48 41 48 41 47 40 C46.84285346 38.36743242 46.74914586 36.72864662 46.68359375 35.08984375 C46.64169922 34.10048828 46.59980469 33.11113281 46.55664062 32.09179688 C46.51732422 31.05087891 46.47800781 30.00996094 46.4375 28.9375 C46.39431641 27.89271484 46.35113281 26.84792969 46.30664062 25.77148438 C46.20018775 23.18113116 46.0981724 20.59067814 46 18 C40.41335154 17.39578469 40.41335154 17.39578469 36 20 Z M50 18 C49.94620774 20.95857409 49.90642907 23.91617721 49.875 26.875 C49.85824219 27.71675781 49.84148437 28.55851562 49.82421875 29.42578125 C49.81777344 30.23144531 49.81132813 31.03710938 49.8046875 31.8671875 C49.79421387 32.61081543 49.78374023 33.35444336 49.77294922 34.12060547 C49.8334403 36.24490235 49.8334403 36.24490235 52 38 C54.9093558 38.14517744 57.719946 38.18630796 60.625 38.125 C61.82769531 38.11146484 61.82769531 38.11146484 63.0546875 38.09765625 C65.03658523 38.07406223 67.01832981 38.03819065 69 38 C67.68619168 33.21802027 65.80507603 30.10006564 62.625 26.3125 C61.85414062 25.38050781 61.08328125 24.44851562 60.2890625 23.48828125 C58.26934095 21.29278189 56.55684321 19.52290063 54 18 C52.68 18 51.36 18 50 18 Z M-5.375 56.625 C-7.48706506 59.71186432 -7.61195145 61.3282913 -7 65 C-5.5 67.5 -5.5 67.5 -3 69 C0.6717087 69.61195145 2.28813568 69.48706506 5.375 67.375 C7.48706506 64.28813568 7.61195145 62.6717087 7 59 C5.5 56.5 5.5 56.5 3 55 C-0.6717087 54.38804855 -2.28813568 54.51293494 -5.375 56.625 Z M48.625 56.625 C46.51293494 59.71186432 46.38804855 61.3282913 47 65 C48.5 67.5 48.5 67.5 51 69 C54.6717087 69.61195145 56.28813568 69.48706506 59.375 67.375 C61.48706506 64.28813568 61.61195145 62.6717087 61 59 C59.5 56.5 59.5 56.5 57 55 C53.3282913 54.38804855 51.71186432 54.51293494 48.625 56.625 Z " fill="#000000" transform="translate(26,16)"/>
<path d="M0 0 C1.32 0.33 2.64 0.66 4 1 C4 5.07514725 2.44507745 6.01279664 -0.3125 8.9375 C-3.05225153 11.86254874 -5.66336069 14.74080408 -8 18 C-10.99220268 16.63629701 -13.29026529 15.05091917 -15.75 12.875 C-16.36359375 12.33617187 -16.9771875 11.79734375 -17.609375 11.2421875 C-18.06828125 10.83226562 -18.5271875 10.42234375 -19 10 C-18.34 8.68 -17.68 7.36 -17 6 C-13.30706264 6.6594531 -12.29427421 7.52929434 -9 10 C-6.03 6.7 -3.06 3.4 0 0 Z " fill="#000000" transform="translate(51,42)"/>
<path d="M0 0 C1.32 0 2.64 0 4 0 C4.66 2.31 5.32 4.62 6 7 C7.32 7.33 8.64 7.66 10 8 C10 9.32 10 10.64 10 12 C3.9453125 12.1953125 3.9453125 12.1953125 2 12 C0 10 0 10 -0.1953125 7.6171875 C-0.17210938 6.71226563 -0.14890625 5.80734375 -0.125 4.875 C-0.10695312 3.96492188 -0.08890625 3.05484375 -0.0703125 2.1171875 C-0.04710937 1.41851562 -0.02390625 0.71984375 0 0 Z " fill="#000000" transform="translate(0,68)"/>
<path d="M0 0 C2.01822917 0.06510417 4.03645833 0.13020833 6.0546875 0.1953125 C6.0546875 1.5153125 6.0546875 2.8353125 6.0546875 4.1953125 C4.848125 4.5046875 4.848125 4.5046875 3.6171875 4.8203125 C2.7715625 5.2740625 1.9259375 5.7278125 1.0546875 6.1953125 C0.15637911 9.24803715 0.15637911 9.24803715 0.0546875 12.1953125 C-1.2653125 12.1953125 -2.5853125 12.1953125 -3.9453125 12.1953125 C-3.99926728 10.57067408 -4.03808445 8.94552709 -4.0703125 7.3203125 C-4.09351563 6.41539063 -4.11671875 5.51046875 -4.140625 4.578125 C-3.89173602 1.54167938 -3.13506836 0.3147659 0 0 Z " fill="#000000" transform="translate(3.9453125,15.8046875)"/>
<path d="M0 0 C1.32 0 2.64 0 4 0 C4 2.64 4 5.28 4 8 C2.68 8 1.36 8 0 8 C0 5.36 0 2.72 0 0 Z " fill="#000000" transform="translate(0,56)"/>
<path d="M0 0 C1.32 0 2.64 0 4 0 C4 2.64 4 5.28 4 8 C2.68 8 1.36 8 0 8 C0 5.36 0 2.72 0 0 Z " fill="#000000" transform="translate(0,44)"/>
<path d="M0 0 C1.32 0 2.64 0 4 0 C4 2.64 4 5.28 4 8 C2.68 8 1.36 8 0 8 C0 5.36 0 2.72 0 0 Z " fill="#000000" transform="translate(0,32)"/>
<path d="M0 0 C2.64 0 5.28 0 8 0 C8 1.32 8 2.64 8 4 C5.36 4 2.72 4 0 4 C0 2.68 0 1.36 0 0 Z " fill="#000000" transform="translate(14,16)"/>
</svg>
