<?xml version="1.0" encoding="UTF-8"?>
<svg version="1.1" xmlns="http://www.w3.org/2000/svg" width="100" height="100">
<path d="M0 0 C3.1875 0.375 3.1875 0.375 5.375 2.3125 C9.95752585 10.0553885 12.69165576 20.39493709 11.93359375 29.38671875 C11.71536937 32.93866885 11.82149894 35.06126241 13.1875 38.375 C16.86682102 42.02143848 21.36039688 44.63825617 25.7109375 47.40234375 C31.75586489 51.26899959 38.93093085 56.8618617 42.1875 63.375 C42.375 66.875 42.375 66.875 42.1875 70.375 C39.72285831 72.83964169 38.91219839 72.72579242 35.5 72.8125 C25.5020522 72.65442968 16.23167426 68.25107468 7.1875 64.375 C8.1775 78.235 8.1775 78.235 9.1875 92.375 C12.1575 92.87 12.1575 92.87 15.1875 93.375 C16.1775 93.87 16.1775 93.87 17.1875 94.375 C18.80915752 94.49648305 20.43634327 94.55043652 22.0625 94.5625 C22.92617187 94.57667969 23.78984375 94.59085937 24.6796875 94.60546875 C27.33238793 94.36168475 28.86104401 93.6046279 31.1875 92.375 C36.41146617 92.73946276 41.28163994 94.64159611 46.1875 96.375 C46.1875 97.695 46.1875 99.015 46.1875 100.375 C41.0312104 100.47812579 36.28395378 100.24512625 31.1875 99.375 C30.1975 99.87 30.1975 99.87 29.1875 100.375 C26.93924913 100.47300068 24.68788076 100.50474764 22.4375 100.5 C21.22578125 100.50257812 20.0140625 100.50515625 18.765625 100.5078125 C15.1875 100.375 15.1875 100.375 11.859375 99.8046875 C9.22296699 99.11411807 9.22296699 99.11411807 7.1875 100.375 C4.93924913 100.47300068 2.68788076 100.50474764 0.4375 100.5 C-0.77421875 100.50257812 -1.9859375 100.50515625 -3.234375 100.5078125 C-6.8125 100.375 -6.8125 100.375 -10.140625 99.8046875 C-12.77703301 99.11411807 -12.77703301 99.11411807 -14.8125 100.375 C-17.06075087 100.47300068 -19.31211924 100.50474764 -21.5625 100.5 C-22.77421875 100.50257812 -23.9859375 100.50515625 -25.234375 100.5078125 C-28.8125 100.375 -28.8125 100.375 -32.140625 99.8046875 C-34.77703301 99.11411807 -34.77703301 99.11411807 -36.8125 100.375 C-38.35273996 100.44450541 -39.89584988 100.45952357 -41.4375 100.4375 C-42.25476562 100.42847656 -43.07203125 100.41945313 -43.9140625 100.41015625 C-44.54054688 100.39855469 -45.16703125 100.38695313 -45.8125 100.375 C-45.8125 99.055 -45.8125 97.735 -45.8125 96.375 C-34.22487113 91.57087629 -34.22487113 91.57087629 -28.8125 93.375 C-28.1525 93.705 -27.4925 94.035 -26.8125 94.375 C-25.19084248 94.49648305 -23.56365673 94.55043652 -21.9375 94.5625 C-21.07382812 94.57667969 -20.21015625 94.59085937 -19.3203125 94.60546875 C-16.65563236 94.36058381 -15.16424944 93.57943848 -12.8125 92.375 C-11.4925 92.375 -10.1725 92.375 -8.8125 92.375 C-8.1525 83.135 -7.4925 73.895 -6.8125 64.375 C-12.55721647 66.63096391 -12.55721647 66.63096391 -18.29980469 68.89233398 C-19.02071289 69.17407471 -19.74162109 69.45581543 -20.484375 69.74609375 C-21.2175293 70.03411865 -21.95068359 70.32214355 -22.70605469 70.61889648 C-26.70156784 72.05307639 -30.18597923 72.53385094 -34.4375 72.5625 C-35.87996094 72.58376953 -35.87996094 72.58376953 -37.3515625 72.60546875 C-39.8125 72.375 -39.8125 72.375 -41.8125 70.375 C-42.43581627 66.91213183 -42.52158405 64.49676641 -40.59765625 61.453125 C-38.76878943 59.30151698 -36.84378505 57.33699525 -34.8125 55.375 C-34.06355469 54.64023437 -33.31460938 53.90546875 -32.54296875 53.1484375 C-29.04199218 49.8567277 -25.86417384 46.9205003 -21.57421875 44.6953125 C-15.61193798 41.75961023 -15.61193798 41.75961023 -12.14013672 36.36425781 C-11.23773623 31.49688986 -11.1006885 26.59062786 -10.93994141 21.65283203 C-10.55192057 14.71751704 -8.48748887 1.13166518 0 0 Z M-0.8125 5.375 C-5.60147218 15.88284187 -6.96389603 26.08132534 -7.2734375 37.5625 C-8.15963718 42.18615051 -10.9430897 43.76200014 -14.66015625 46.3828125 C-15.72105469 47.08148438 -16.78195313 47.78015625 -17.875 48.5 C-29.11620092 55.56030148 -29.11620092 55.56030148 -36.609375 65.66796875 C-36.67640625 66.23128906 -36.7434375 66.79460937 -36.8125 67.375 C-31.1058088 67.69660907 -26.82615759 66.67826054 -21.5 64.6875 C-20.75451904 64.41856934 -20.00903809 64.14963867 -19.2409668 63.87255859 C-14.2706276 62.03896696 -9.57638123 59.92511743 -4.98828125 57.2578125 C-1.45424298 55.82389392 1.49139522 55.74483867 5.09838867 57.08496094 C7.24196111 58.06590479 9.33938038 59.11288767 11.4375 60.1875 C19.86564468 64.3192627 27.61233179 67.99946749 37.1875 67.375 C33.96027943 57.30107944 22.59524846 51.0215302 14.05200195 45.59887695 C9.27941814 42.55883628 9.27941814 42.55883628 8.1875 40.375 C8.01552836 39.00839149 7.89092388 37.63561753 7.79296875 36.26171875 C6.93665244 25.56451161 6.07180786 15.14361572 1.1875 5.375 C0.5275 5.375 -0.1325 5.375 -0.8125 5.375 Z M-0.8125 60.375 C-2.79785467 62.36035467 -2.229696 66.15181806 -2.375 68.875 C-2.4174585 69.62515381 -2.45991699 70.37530762 -2.50366211 71.14819336 C-2.92101555 79.22402449 -2.9035562 87.29123306 -2.8125 95.375 C-0.8325 95.375 1.1475 95.375 3.1875 95.375 C3.31568318 83.99518175 2.98318202 72.72767742 2.1875 61.375 C1.1975 61.045 0.2075 60.715 -0.8125 60.375 Z " fill="#000000" transform="translate(49.8125,-0.375)"/>
<path d="M0 0 C3 0.125 3 0.125 4 1.125 C4.125 4.125 4.125 4.125 4 7.125 C3 8.125 3 8.125 0 8.25 C-3 8.125 -3 8.125 -4 7.125 C-4.125 4.125 -4.125 4.125 -4 1.125 C-3 0.125 -3 0.125 0 0 Z " fill="#000000" transform="translate(50,41.875)"/>
</svg>
